<?xml version="1.0" encoding="UTF-8" standalone="no"?>
<!DOCTYPE svg PUBLIC "-//W3C//DTD SVG 1.1//EN" "http://www.w3.org/Graphics/SVG/1.1/DTD/svg11.dtd">
<svg width="100%" height="100%" viewBox="0 0 964 1065" version="1.1" xmlns="http://www.w3.org/2000/svg" xmlns:xlink="http://www.w3.org/1999/xlink" xml:space="preserve" xmlns:serif="http://www.serif.com/" style="fill-rule:evenodd;clip-rule:evenodd;stroke-linejoin:round;stroke-miterlimit:2;">
    <g id="Artboard1" transform="matrix(1,0,0,1,-295.294,-0.227782)">
        <rect x="295.294" y="0.228" width="963.119" height="1064.77" style="fill:none;"/>
        <clipPath id="_clip1">
            <rect x="295.294" y="0.228" width="963.119" height="1064.77"/>
        </clipPath>
        <g clip-path="url(#_clip1)">
            <g transform="matrix(4.16667,0,0,4.16667,-934.803,-0.493528)">
                <path d="M295.294,12.16L295.294,181.977C295.294,181.977 360.579,174.379 360.579,238.149L360.579,77.439C360.579,16.71 295.294,12.16 295.294,12.16" style="fill:rgb(35,31,31);fill-rule:nonzero;"/>
                <path d="M325.872,0.228L325.872,149.65C325.872,149.65 361.913,156.604 361.913,220.369C361.913,284.139 362.094,101.735 362.094,67.572C362.1,6.849 325.872,0.228 325.872,0.228" style="fill:rgb(170,170,170);fill-rule:nonzero;"/>
            </g>
            <g transform="matrix(4.16667,0,0,4.16667,-934.803,-0.493528)">
                <path d="M363.082,75.918L363.082,230.458C363.082,230.458 394.427,142.666 526.191,255.772C526.191,214.783 526.442,111.404 526.442,77.234C396.199,-17.652 363.082,75.918 363.082,75.918" style="fill:rgb(57,120,173);fill-rule:nonzero;"/>
            </g>
            <g transform="matrix(4.16667,0,0,4.16667,-934.803,-0.493528)">
                <path d="M375.5,191.592L404.697,191.592L414.132,126.605L414.43,126.605L440.341,191.592L452.027,191.592L479.13,126.605L479.429,126.605L487.664,191.592L517.037,191.592L499.947,78.714L470.749,78.714L446.482,139.04L423.566,78.714L394.666,78.714L375.5,191.592Z" style="fill:white;fill-rule:nonzero;"/>
            </g>
        </g>
    </g>
</svg>
