<?xml version="1.0" encoding="UTF-8" standalone="no"?>
<!DOCTYPE svg PUBLIC "-//W3C//DTD SVG 1.1//EN" "http://www.w3.org/Graphics/SVG/1.1/DTD/svg11.dtd">
<svg width="100%" height="100%" viewBox="0 0 681 681" version="1.1" xmlns="http://www.w3.org/2000/svg" xmlns:xlink="http://www.w3.org/1999/xlink" xml:space="preserve" xmlns:serif="http://www.serif.com/" style="fill-rule:evenodd;clip-rule:evenodd;stroke-linejoin:round;stroke-miterlimit:2;">
    <g id="Artboard1" transform="matrix(1,0,0,1,-259.93,-259.93)">
        <rect x="259.93" y="259.93" width="680.14" height="680.14" style="fill:none;"/>
        <clipPath id="_clip1">
            <rect x="259.93" y="259.93" width="680.14" height="680.14"/>
        </clipPath>
        <g clip-path="url(#_clip1)">
            <g transform="matrix(1,0,0,1,0.93,0.93)">
                <path d="M600,259.93C412.45,259.93 259.93,412.45 259.93,600C259.93,787.55 412.45,940.07 600,940.07C787.55,940.07 940.07,787.55 940.07,600C940.07,412.45 787.55,259.93 600,259.93ZM577.328,309.758L577.328,418.628L493.254,418.628C497.566,406.847 502.371,395.753 507.422,385.566C527.742,344.597 552.215,319.324 577.324,309.757L577.328,309.758ZM622.672,309.758C647.781,319.324 672.254,344.594 692.574,385.567C697.625,395.755 702.433,406.848 706.742,418.629L622.668,418.629L622.668,309.759L622.672,309.758ZM490.182,326.524C481.647,338.45 473.787,351.407 466.803,365.489C458.733,381.762 451.729,399.696 445.549,418.626L367.854,418.626C399.588,378.028 441.584,346.001 490.184,326.524L490.182,326.524ZM709.812,326.524C758.414,346.001 800.41,378.028 832.142,418.626L754.447,418.626C748.267,399.696 741.263,381.763 733.193,365.489C726.209,351.407 718.345,338.446 709.814,326.524L709.812,326.524ZM338.324,463.974L433.031,463.974C425.164,499.142 420.422,537.24 419.097,577.334L306.207,577.334C309.305,536.686 320.461,498.311 338.324,463.974ZM479.789,463.974L577.327,463.974L577.327,577.334L464.437,577.334C465.921,536.682 471.371,498.295 479.789,463.974ZM622.672,463.974L720.207,463.974C728.625,498.29 734.074,536.681 735.559,577.334L622.669,577.334L622.672,463.974ZM766.954,463.974L861.661,463.974C879.528,498.306 890.681,536.681 893.778,577.334L780.888,577.334C779.564,537.24 774.822,499.146 766.954,463.974ZM306.212,622.674L419.102,622.674C420.411,662.748 424.95,700.869 432.801,736.034L338.336,736.034C320.492,701.682 309.285,663.339 306.219,622.674L306.212,622.674ZM464.442,622.674L577.332,622.674L577.332,736.034L479.797,736.034C471.387,701.749 465.918,663.335 464.445,622.674L464.442,622.674ZM622.672,622.674L735.562,622.674C734.093,663.33 728.621,701.744 720.21,736.034L622.675,736.034L622.672,622.674ZM780.902,622.674L893.792,622.674C890.726,663.334 879.519,701.678 861.675,736.034L767.21,736.034C775.058,700.874 779.597,662.753 780.909,622.674L780.902,622.674ZM367.618,781.374L445.317,781.374C451.52,800.409 458.696,818.155 466.809,834.511C473.793,848.593 481.657,861.788 490.188,873.714C441.461,854.194 399.391,822.112 367.618,781.374ZM493.262,781.374L577.336,781.374L577.336,890.484C552.219,880.859 527.758,855.187 507.434,814.203C502.383,804.015 497.575,793.144 493.266,781.379L493.262,781.374ZM622.682,781.374L706.756,781.374C702.444,793.14 697.639,804.015 692.588,814.198C672.264,855.182 647.803,880.854 622.686,890.479L622.686,781.369L622.682,781.374ZM754.688,781.374L832.387,781.374C800.617,822.112 758.547,854.194 709.817,873.714C718.352,861.792 726.212,848.593 733.196,834.511C741.309,818.156 748.485,800.413 754.688,781.374Z" style="fill-rule:nonzero;"/>
            </g>
        </g>
    </g>
</svg>
